<svg width="180" height="48" viewBox="0 0 180 48" fill="none" xmlns="http://www.w3.org/2000/svg">
<path d="M2 17V10C2 5.58172 5.58172 2 10 2H170C174.418 2 178 5.58172 178 10V17" stroke="#AAEEFF" stroke-width="4" stroke-linecap="square"/>
<path d="M2 31V38C2 42.4183 6.04092 46 11.0256 46H168.974C173.959 46 178 42.4183 178 38V31" stroke="#AAEEFF" stroke-width="4" stroke-linecap="square"/>
<path d="M70.0779 17.888C70.4459 18.528 70.6539 19.304 70.7019 20.216V20.24C70.7019 20.352 70.7019 20.464 70.7019 20.576C70.7019 20.672 70.6939 20.768 70.6779 20.864C70.5819 21.632 70.3259 22.336 69.9099 22.976C69.5099 23.616 69.0059 24.16 68.3979 24.608C67.7899 25.056 67.1179 25.384 66.3819 25.592C65.6459 25.784 64.8939 25.816 64.1259 25.688C64.1419 25.912 64.1499 26.136 64.1499 26.36C64.1499 26.568 64.1499 26.88 64.1499 27.296C64.1499 27.696 64.1499 28.24 64.1499 28.928C64.1659 29.616 64.1899 30.544 64.2219 31.712V31.736C64.2059 31.736 64.1899 31.744 64.1739 31.76C64.1739 31.76 64.1659 31.76 64.1499 31.76C63.9259 31.824 63.6379 31.872 63.2859 31.904C62.9499 31.92 62.5899 31.936 62.2059 31.952C61.8379 31.952 61.4699 31.944 61.1019 31.928C60.7339 31.912 60.4139 31.888 60.1419 31.856C60.0939 30.688 60.0699 29.424 60.0699 28.064C60.0699 26.688 60.0699 25.28 60.0699 23.84C60.0699 22.4 60.0619 20.952 60.0459 19.496C60.0459 18.04 60.0219 16.648 59.9739 15.32C60.6299 15.144 61.3419 15.016 62.1099 14.936C62.8939 14.856 63.6699 14.848 64.4379 14.912C65.2219 14.976 65.9819 15.12 66.7179 15.344C67.4539 15.552 68.1019 15.872 68.6619 16.304C69.2379 16.72 69.7099 17.248 70.0779 17.888ZM66.9819 19.688C66.8699 19.496 66.7099 19.336 66.5019 19.208C66.1019 18.888 65.6379 18.688 65.1099 18.608C64.5819 18.512 64.0619 18.528 63.5499 18.656C63.5179 18.656 63.4939 18.664 63.4779 18.68C63.4939 18.968 63.4939 19.272 63.4779 19.592C63.4779 19.912 63.4779 20.232 63.4779 20.552C63.4939 20.872 63.5099 21.184 63.5259 21.488C63.5579 21.776 63.6139 22.04 63.6939 22.28H63.7659C64.0219 22.264 64.2939 22.256 64.5819 22.256C64.8699 22.24 65.1499 22.216 65.4219 22.184C65.7099 22.152 65.9819 22.096 66.2379 22.016C66.5099 21.92 66.7419 21.776 66.9339 21.584C67.0619 21.408 67.1499 21.208 67.1979 20.984C67.2619 20.76 67.2699 20.536 67.2219 20.312C67.1899 20.088 67.1099 19.88 66.9819 19.688ZM81.9596 29.384C81.9596 29.544 81.9676 29.688 81.9836 29.816C82.0156 30.392 82.0316 30.832 82.0316 31.136C82.0316 31.424 82.0076 31.64 81.9596 31.784C81.9276 31.912 81.8636 31.984 81.7676 32C81.6716 32 81.5356 32 81.3596 32C81.1836 31.984 80.9516 31.984 80.6636 32C80.3916 32.016 79.9196 32.032 79.2476 32.048C78.5916 32.064 77.6796 32.072 76.5116 32.072C75.3596 32.072 73.8156 32.056 71.8796 32.024V31.592C71.9276 30.392 71.9676 29.312 71.9996 28.352C72.0316 27.376 72.0476 26.472 72.0476 25.64C72.0636 24.792 72.0716 23.976 72.0716 23.192C72.0716 22.408 72.0636 21.608 72.0476 20.792C72.0316 19.976 72.0156 19.112 71.9996 18.2C71.9836 17.272 71.9676 16.248 71.9516 15.128C72.1116 15.064 72.3596 15.016 72.6956 14.984C73.0316 14.936 73.3916 14.912 73.7756 14.912C74.1596 14.912 74.5356 14.936 74.9036 14.984C75.2716 15.032 75.5676 15.104 75.7916 15.2C75.7596 16.24 75.7436 17.312 75.7436 18.416C75.7596 19.504 75.7756 20.6 75.7916 21.704C75.8076 22.808 75.8156 23.912 75.8156 25.016C75.8316 26.104 75.8316 27.16 75.8156 28.184V28.208C75.9276 28.176 76.1356 28.168 76.4396 28.184C76.7596 28.184 77.1276 28.192 77.5436 28.208C77.9596 28.224 78.3996 28.248 78.8636 28.28C79.3436 28.296 79.7916 28.312 80.2076 28.328C80.6396 28.344 81.0156 28.36 81.3356 28.376C81.6716 28.376 81.9036 28.368 82.0316 28.352C82.0316 28.528 82.0236 28.704 82.0076 28.88C81.9916 29.04 81.9756 29.208 81.9596 29.384ZM90.5021 22.472C90.6141 22.936 90.7021 23.304 90.7661 23.576L92.5661 31.976V32C92.0861 32.096 91.5581 32.128 90.9821 32.096C90.4061 32.08 89.8621 32.016 89.3501 31.904H89.3261C89.2301 31.648 89.1341 31.344 89.0381 30.992C88.9581 30.64 88.8701 30.28 88.7741 29.912C88.6941 29.544 88.6061 29.192 88.5101 28.856C88.4141 28.52 88.3101 28.232 88.1981 27.992C87.9901 27.96 87.8301 27.944 87.7181 27.944C87.6061 27.944 87.5021 27.944 87.4061 27.944C87.3261 27.944 87.2301 27.952 87.1181 27.968C87.0221 27.968 86.8861 27.968 86.7101 27.968C86.5981 28.224 86.5021 28.528 86.4221 28.88C86.3581 29.216 86.2861 29.576 86.2061 29.96C86.1421 30.328 86.0701 30.688 85.9901 31.04C85.9101 31.392 85.7981 31.704 85.6541 31.976C85.6381 31.976 85.6221 31.984 85.6061 32C85.6061 32 85.5981 32 85.5821 32C85.4541 32.032 85.1341 32.032 84.6221 32C84.1101 31.968 83.3101 31.96 82.2221 31.976C82.2061 31.976 82.1901 31.968 82.1741 31.952C82.2061 31.84 82.2621 31.528 82.3421 31.016C82.4221 30.504 82.5341 29.84 82.6781 29.024C82.8221 28.208 82.9901 27.272 83.1821 26.216C83.3901 25.144 83.6301 24.008 83.9021 22.808C84.1741 21.608 84.4701 20.36 84.7901 19.064C85.1101 17.768 85.4621 16.48 85.8461 15.2C85.9581 15.184 86.0781 15.176 86.2061 15.176C86.3341 15.176 86.5021 15.176 86.7101 15.176C86.9181 15.176 87.1821 15.176 87.5021 15.176C87.8381 15.16 88.2701 15.128 88.7981 15.08C88.8461 15.288 88.9181 15.608 89.0141 16.04C89.1261 16.456 89.2381 16.936 89.3501 17.48C89.4781 18.008 89.6061 18.576 89.7341 19.184C89.8781 19.792 90.0141 20.376 90.1421 20.936C90.2701 21.496 90.3901 22.008 90.5021 22.472ZM87.4061 25.16C87.7101 25.144 88.0141 25.136 88.3181 25.136C88.1581 23.76 88.0141 22.688 87.8861 21.92C87.7741 21.152 87.6701 20.632 87.5741 20.36C87.4941 20.088 87.4061 20.032 87.3101 20.192C87.2301 20.336 87.1501 20.64 87.0701 21.104C87.0061 21.568 86.9261 22.152 86.8301 22.856C86.7501 23.56 86.6541 24.32 86.5421 25.136C86.8141 25.152 87.1021 25.16 87.4061 25.16ZM102.9 15.344C103.06 15.344 103.188 15.352 103.284 15.368V15.392C102.836 16.832 102.308 18.24 101.7 19.616C101.092 20.992 100.46 22.368 99.8044 23.744C99.1484 25.104 98.5084 26.472 97.8844 27.848C97.2604 29.208 96.7084 30.592 96.2284 32C96.1324 31.984 96.0364 31.976 95.9404 31.976C95.8444 31.976 95.7404 31.976 95.6284 31.976C95.2924 31.976 94.9244 31.984 94.5244 32C94.1244 32.032 93.7404 32.048 93.3724 32.048C93.2764 32.048 93.1804 32.048 93.0844 32.048C92.9884 32.048 92.8924 32.04 92.7964 32.024H92.7484C93.1644 30.728 93.6524 29.376 94.2124 27.968C94.7724 26.544 95.3324 25.128 95.8924 23.72V23.672C95.7164 22.968 95.4924 22.272 95.2204 21.584C94.9484 20.88 94.6604 20.184 94.3564 19.496C94.0684 18.808 93.7884 18.12 93.5164 17.432C93.2444 16.744 93.0284 16.064 92.8684 15.392C93.1884 15.392 93.5244 15.368 93.8764 15.32C94.2284 15.272 94.5804 15.248 94.9324 15.248C95.1244 15.248 95.3164 15.264 95.5084 15.296C95.7004 15.312 95.8844 15.36 96.0604 15.44C96.1404 15.792 96.2524 16.208 96.3964 16.688C96.5564 17.168 96.7164 17.656 96.8764 18.152C97.0524 18.648 97.2284 19.12 97.4044 19.568C97.5964 20.016 97.7644 20.392 97.9084 20.696C98.0684 20.408 98.2284 20.04 98.3884 19.592C98.5644 19.128 98.7324 18.648 98.8924 18.152C99.0684 17.656 99.2364 17.168 99.3964 16.688C99.5564 16.208 99.7084 15.808 99.8524 15.488C100.14 15.424 100.524 15.384 101.004 15.368C101.5 15.336 101.956 15.32 102.372 15.32C102.564 15.32 102.74 15.328 102.9 15.344Z" fill="white"/>
<path d="M111.001 17.2453L111 30.7545C111 31.6203 112.026 32.077 112.669 31.4979L120.174 24.7433C120.616 24.346 120.616 23.6539 120.174 23.2567L112.67 16.5021C112.026 15.9229 111.001 16.3795 111.001 17.2453Z" fill="white"/>
</svg>
