<svg width="32" height="32" viewBox="0 0 32 32" fill="none" xmlns="http://www.w3.org/2000/svg">
<path d="M6.48779 27.5987C9.07644 29.7242 12.3893 31 16.0002 31C24.2844 31 31.0002 24.2843 31.0002 16C31.0002 12.3892 29.7243 9.07632 27.5988 6.48767" stroke="#FFAF4B" stroke-width="2"/>
<path d="M25.5122 4.40134C22.9236 2.27583 19.6107 0.999962 15.9998 0.999962C7.71557 0.999962 0.99984 7.71569 0.99984 16C0.99984 19.6108 2.27571 22.9237 4.40122 25.5123" stroke="#AAEEFF" stroke-width="2"/>
<mask id="path-4-outside-1_1_174" maskUnits="userSpaceOnUse" x="5" y="4" width="22" height="23" fill="black">
<rect fill="white" x="5" y="4" width="22" height="23"/>
<path d="M24.5956 17.5841C24.7619 17.7016 24.8859 17.8658 24.9503 18.054C25.0148 18.2422 25.0165 18.445 24.9553 18.6342C24.5307 19.9366 23.8084 21.1317 22.8412 22.1323C22.7016 22.2759 22.5189 22.3745 22.3185 22.4144C22.118 22.4544 21.9096 22.4337 21.7219 22.3553L20.4123 21.8039C20.2692 21.7428 20.1132 21.7146 19.9568 21.7216C19.8009 21.7303 19.6493 21.7743 19.5146 21.8501C19.3797 21.925 19.2653 22.0296 19.1806 22.1551C19.0959 22.2807 19.0435 22.4237 19.0276 22.5725L18.8702 23.9414C18.8475 24.1362 18.7626 24.3196 18.6271 24.4664C18.4916 24.6132 18.3122 24.7162 18.1133 24.7614C16.7226 25.0795 15.273 25.0795 13.8824 24.7614C13.6849 24.7156 13.5068 24.6128 13.372 24.4668C13.2373 24.3209 13.1524 24.1389 13.1288 23.9452L12.9714 22.5789C12.9441 22.3461 12.8285 22.131 12.6465 21.9748C12.5042 21.8544 12.3293 21.7751 12.142 21.7461C11.9547 21.7171 11.7626 21.7396 11.5881 21.8109L10.2785 22.363C10.0913 22.4414 9.88343 22.4623 9.68337 22.4228C9.48332 22.3833 9.3009 22.2854 9.16115 22.1425C8.19233 21.1409 7.46911 19.9443 7.04436 18.64C6.98346 18.451 6.98531 18.2486 7.04963 18.0607C7.11396 17.8728 7.23759 17.7087 7.40341 17.5912L8.55894 16.7718C8.6852 16.6829 8.78788 16.5668 8.85866 16.4329C8.92943 16.2989 8.96631 16.1508 8.96631 16.0006C8.96631 15.8504 8.92943 15.7023 8.85866 15.5683C8.78788 15.4343 8.6852 15.3182 8.55894 15.2294L7.40341 14.4112C7.23848 14.2944 7.11538 14.1313 7.05108 13.9445C6.98678 13.7577 6.98443 13.5563 7.04436 13.3682C7.46899 12.065 8.192 10.8694 9.16048 9.86887C9.25426 9.77183 9.36814 9.69471 9.49541 9.64329C9.61939 9.59292 9.75265 9.56696 9.88729 9.56696C10.0219 9.56696 10.1552 9.59292 10.2792 9.64329L11.5834 10.1947C11.7269 10.2538 11.8828 10.2799 12.0387 10.2708C12.1945 10.2618 12.346 10.2178 12.481 10.1425C12.616 10.0671 12.7307 9.9625 12.816 9.83698C12.9012 9.71146 12.9547 9.56854 12.972 9.41964L13.1301 8.0559C13.1531 7.85898 13.2395 7.67385 13.3774 7.52628C13.5152 7.37872 13.6976 7.27607 13.8991 7.23265C14.5914 7.0861 15.2976 7.00815 16.0065 7C16.7112 7.00771 17.4133 7.08547 18.1012 7.23265C18.3032 7.27577 18.4859 7.37859 18.6238 7.52663C18.7616 7.67466 18.8476 7.86045 18.8696 8.05783L19.0276 9.42029C19.0444 9.56895 19.0974 9.71175 19.1823 9.83714C19.2672 9.96252 19.3817 10.067 19.5165 10.1421C19.6513 10.2171 19.8026 10.2607 19.9582 10.2693C20.1139 10.2779 20.2694 10.2512 20.4123 10.1915L21.7158 9.64072C21.9038 9.56225 22.1125 9.5415 22.3133 9.58131C22.514 9.62112 22.697 9.71954 22.8372 9.86309C23.8051 10.8625 24.5277 12.0571 24.952 13.3592C25.0133 13.548 25.0116 13.7505 24.9471 13.9383C24.8826 14.1261 24.7585 14.2899 24.5922 14.4067L23.4401 15.2249C23.3133 15.3129 23.2101 15.4284 23.1388 15.5621C23.0675 15.6957 23.0302 15.8437 23.0299 15.9938C23.0297 16.1439 23.0664 16.292 23.1373 16.4259C23.2081 16.5597 23.3109 16.6756 23.4374 16.7641L24.5956 17.5841ZM15.9998 18.5661C16.7105 18.5661 17.392 18.2953 17.8945 17.8132C18.397 17.3311 18.6793 16.6772 18.6793 15.9954C18.6793 15.3136 18.397 14.6598 17.8945 14.1777C17.392 13.6956 16.7105 13.4248 15.9998 13.4248C15.2892 13.4248 14.6077 13.6956 14.1052 14.1777C13.6027 14.6598 13.3204 15.3136 13.3204 15.9954C13.3204 16.6772 13.6027 17.3311 14.1052 17.8132C14.6077 18.2953 15.2892 18.5661 15.9998 18.5661Z"/>
</mask>
<path d="M24.5956 17.5841L23.4399 19.2164L23.4417 19.2176L24.5956 17.5841ZM24.9553 18.6342L26.8568 19.2542L26.8581 19.2501L24.9553 18.6342ZM22.8412 22.1323L24.2753 23.5264L24.2792 23.5223L22.8412 22.1323ZM21.7219 22.3553L20.9457 24.1985L20.9508 24.2007L21.7219 22.3553ZM20.4123 21.8039L19.627 23.6433L19.6361 23.6471L20.4123 21.8039ZM19.9568 21.7216L19.8675 19.7236L19.8564 19.7241L19.8453 19.7247L19.9568 21.7216ZM19.5146 21.8501L20.4855 23.5987L20.4953 23.5932L19.5146 21.8501ZM19.0276 22.5725L21.0145 22.801L21.0155 22.7929L21.0163 22.7848L19.0276 22.5725ZM18.8702 23.9414L20.8568 24.1725L20.8571 24.1699L18.8702 23.9414ZM18.1133 24.7614L17.6704 22.8111L17.6673 22.8118L18.1133 24.7614ZM13.8824 24.7614L13.4302 26.7096L13.4364 26.711L13.8824 24.7614ZM13.1288 23.9452L11.1419 24.1741L11.1435 24.1872L13.1288 23.9452ZM12.9714 22.5789L14.9582 22.35L14.9578 22.3467L12.9714 22.5789ZM12.6465 21.9748L13.9491 20.4571L13.9383 20.448L12.6465 21.9748ZM11.5881 21.8109L10.8315 19.9596L10.8213 19.9637L10.8112 19.968L11.5881 21.8109ZM10.2785 22.363L11.0511 24.2077L11.0554 24.2059L10.2785 22.363ZM9.16115 22.1425L7.72358 23.5331L7.73131 23.541L9.16115 22.1425ZM7.04436 18.64L5.14078 19.2535L5.14267 19.2593L7.04436 18.64ZM7.40341 17.5912L8.55989 19.2229L8.5603 19.2226L7.40341 17.5912ZM8.55894 16.7718L7.40823 15.1359L7.40205 15.1403L8.55894 16.7718ZM8.96631 16.0006H10.9663H8.96631ZM8.55894 15.2294L7.40325 16.8617L7.40824 16.8652L8.55894 15.2294ZM7.40341 14.4112L6.24697 16.043L6.24774 16.0435L7.40341 14.4112ZM7.04436 13.3682L5.14272 12.7486L5.13872 12.7611L7.04436 13.3682ZM9.16048 9.86887L10.5975 11.2599L10.5987 11.2587L9.16048 9.86887ZM9.49541 9.64329L10.2445 11.4977L10.2483 11.4962L9.49541 9.64329ZM10.2792 9.64329L11.058 7.80116L11.0451 7.7957L11.0321 7.79042L10.2792 9.64329ZM11.5834 10.1947L10.8046 12.0368L10.813 12.0404L10.8214 12.0438L11.5834 10.1947ZM12.972 9.41964L14.9586 9.65103L14.9587 9.64995L12.972 9.41964ZM13.1301 8.0559L11.1436 7.82397L11.1434 7.8256L13.1301 8.0559ZM13.8991 7.23265L13.485 5.27598L13.4778 5.27753L13.8991 7.23265ZM16.0065 7L16.0284 5.00012L16.006 4.99987L15.9836 5.00013L16.0065 7ZM18.1012 7.23265L17.6828 9.1884L17.6836 9.18856L18.1012 7.23265ZM18.8696 8.05783L16.8818 8.27911L16.8829 8.28835L18.8696 8.05783ZM19.0276 9.42029L21.0151 9.19625L21.0143 9.18977L19.0276 9.42029ZM20.4123 10.1915L21.1839 12.0366L21.1907 12.0338L20.4123 10.1915ZM21.7158 9.64072L20.9454 7.79506L20.9374 7.79841L21.7158 9.64072ZM22.8372 9.86309L24.2739 8.47173L24.2682 8.46586L22.8372 9.86309ZM24.952 13.3592L26.8541 12.7412L26.8535 12.7395L24.952 13.3592ZM24.5922 14.4067L23.4424 12.7703L23.4343 12.776L24.5922 14.4067ZM23.4401 15.2249L24.5807 16.8677L24.5894 16.8617L24.598 16.8556L23.4401 15.2249ZM23.4374 16.7641L24.5931 15.1317L24.5835 15.125L23.4374 16.7641ZM15.9998 13.4248V11.4248V13.4248ZM13.3204 15.9954H11.3204H13.3204ZM23.4417 19.2176C23.273 19.0985 23.1335 18.9217 23.0583 18.7021L26.8424 17.4059C26.6383 16.8099 26.2508 16.3046 25.7495 15.9506L23.4417 19.2176ZM23.0583 18.7021C22.9827 18.4814 22.9805 18.2407 23.0525 18.0183L26.8581 19.2501C27.0526 18.6493 27.047 18.003 26.8424 17.4059L23.0583 18.7021ZM23.0538 18.0143C22.7248 19.0234 22.163 19.9563 21.4032 20.7422L24.2792 23.5223C25.4539 22.3071 26.3366 20.8498 26.8568 19.2542L23.0538 18.0143ZM21.4071 20.7382C21.5559 20.5852 21.7396 20.4904 21.9277 20.453L22.7092 24.3759C23.2983 24.2585 23.8473 23.9666 24.2753 23.5263L21.4071 20.7382ZM21.9277 20.453C22.1154 20.4156 22.3116 20.4341 22.4929 20.5099L20.9508 24.2007C21.5075 24.4333 22.1206 24.4932 22.7092 24.3759L21.9277 20.453ZM22.498 20.512L21.1884 19.9606L19.6361 23.6471L20.9457 24.1985L22.498 20.512ZM21.1975 19.9644C20.7766 19.7848 20.3216 19.7033 19.8675 19.7236L20.046 23.7196C19.9048 23.7259 19.7617 23.7008 19.6271 23.6433L21.1975 19.9644ZM19.8453 19.7247C19.3873 19.7503 18.938 19.8797 18.534 20.107L20.4953 23.5932C20.3607 23.6689 20.2144 23.7103 20.0682 23.7185L19.8453 19.7247ZM18.5438 20.1016C18.1386 20.3265 17.7866 20.645 17.5223 21.0371L20.8389 23.2731C20.7439 23.4141 20.6208 23.5235 20.4855 23.5987L18.5438 20.1016ZM17.5223 21.0371C17.2576 21.4297 17.0899 21.883 17.039 22.3601L21.0163 22.7848C20.9972 22.9645 20.9343 23.1317 20.8389 23.2731L17.5223 21.0371ZM17.0407 22.344L16.8833 23.7129L20.8571 24.1699L21.0145 22.801L17.0407 22.344ZM16.8836 23.7102C16.9108 23.4765 17.0116 23.268 17.1575 23.1099L20.0968 25.823C20.5137 25.3713 20.7843 24.796 20.8568 24.1725L16.8836 23.7102ZM17.1575 23.1099C17.3024 22.9529 17.4837 22.8535 17.6704 22.8111L18.5561 26.7118C19.1406 26.579 19.6809 26.2735 20.0968 25.823L17.1575 23.1099ZM17.6673 22.8118C16.5702 23.0627 15.4255 23.0627 14.3284 22.8118L13.4364 26.711C15.1206 27.0963 16.8751 27.0963 18.5593 26.711L17.6673 22.8118ZM14.3346 22.8132C14.5191 22.856 14.6981 22.9548 14.8414 23.1101L11.9026 25.8236C12.3154 26.2707 12.8506 26.5751 13.4302 26.7096L14.3346 22.8132ZM14.8414 23.1101C14.9858 23.2664 15.0859 23.4723 15.1141 23.7032L11.1435 24.1872C11.2188 24.8054 11.4888 25.3754 11.9026 25.8236L14.8414 23.1101ZM15.1156 23.7163L14.9582 22.35L10.9845 22.8078L11.1419 24.1741L15.1156 23.7163ZM14.9578 22.3467C14.8708 21.602 14.5027 20.9323 13.949 20.4571L11.3439 23.4925C11.1543 23.3298 11.0175 23.0901 10.9849 22.8111L14.9578 22.3467ZM13.9383 20.448C13.5101 20.0857 12.9925 19.854 12.448 19.7697L11.8359 23.7226C11.666 23.6963 11.4983 23.6231 11.3546 23.5016L13.9383 20.448ZM12.448 19.7697C11.9036 19.6854 11.3441 19.7501 10.8315 19.9596L12.3447 23.6623C12.1811 23.7291 12.0057 23.7489 11.8359 23.7226L12.448 19.7697ZM10.8112 19.968L9.5016 20.52L11.0554 24.2059L12.365 23.6539L10.8112 19.968ZM9.5059 20.5182C9.68693 20.4424 9.88289 20.4236 10.0705 20.4606L9.29626 24.385C9.88397 24.5009 10.4957 24.4403 11.0511 24.2077L9.5059 20.5182ZM10.0705 20.4606C10.2584 20.4977 10.4421 20.5919 10.591 20.7441L7.73131 23.541C8.15971 23.979 8.7082 24.269 9.29626 24.385L10.0705 20.4606ZM10.5987 20.7521C9.8377 19.9653 9.27516 19.0312 8.94606 18.0207L5.14267 19.2593C5.66306 20.8573 6.54696 22.3166 7.7236 23.533L10.5987 20.7521ZM8.94794 18.0265C9.01945 18.2484 9.01717 18.4884 8.94183 18.7084L5.15744 17.4129C4.95344 18.0088 4.94748 18.6537 5.14078 19.2535L8.94794 18.0265ZM8.94183 18.7084C8.86688 18.9274 8.72794 19.1038 8.55989 19.2229L6.24694 15.9594C5.74725 16.3136 5.36104 16.8182 5.15744 17.4129L8.94183 18.7084ZM8.5603 19.2226L9.71582 18.4032L7.40205 15.1403L6.24653 15.9597L8.5603 19.2226ZM9.70963 18.4076C10.0893 18.1405 10.4059 17.7858 10.6271 17.367L7.09022 15.4987C7.16988 15.3479 7.28108 15.2254 7.40824 15.1359L9.70963 18.4076ZM10.6271 17.367C10.8485 16.9478 10.9663 16.4793 10.9663 16.0006H6.96631C6.96631 15.8222 7.01032 15.65 7.09022 15.4987L10.6271 17.367ZM10.9663 16.0006C10.9663 15.5218 10.8485 15.0534 10.6271 14.6341L7.09022 16.5024C7.01032 16.3512 6.96631 16.1789 6.96631 16.0006H10.9663ZM10.6271 14.6341C10.4059 14.2153 10.0893 13.8606 9.70963 13.5935L7.40824 16.8652C7.28109 16.7757 7.16989 16.6532 7.09022 16.5024L10.6271 14.6341ZM9.71461 13.5971L8.55909 12.7789L6.24774 16.0435L7.40326 16.8617L9.71461 13.5971ZM8.55986 12.7795C8.7279 12.8986 8.8669 13.0748 8.94217 13.2935L5.15999 14.5954C5.36387 15.1877 5.74906 15.6901 6.24697 16.043L8.55986 12.7795ZM8.94217 13.2935C9.01784 13.5133 9.02076 13.7532 8.95 13.9753L5.13872 12.7611C4.9481 13.3595 4.95571 14.002 5.15999 14.5954L8.94217 13.2935ZM8.94597 13.9878C9.27485 12.9784 9.83703 12.0455 10.5975 11.2599L7.72345 8.47784C6.54698 9.69322 5.66313 11.1515 5.14276 12.7486L8.94597 13.9878ZM10.5987 11.2587C10.4981 11.3627 10.3773 11.444 10.2445 11.4977L8.74631 7.78888C8.35893 7.94536 8.0104 8.18091 7.72231 8.47903L10.5987 11.2587ZM10.2483 11.4962C10.1317 11.5436 10.0091 11.567 9.88729 11.567V7.56696C9.49616 7.56696 9.10711 7.64227 8.74252 7.79042L10.2483 11.4962ZM9.88729 11.567C9.76543 11.567 9.64291 11.5436 9.52626 11.4962L11.0321 7.79042C10.6675 7.64227 10.2784 7.56696 9.88729 7.56696V11.567ZM9.50034 11.4854L10.8046 12.0368L12.3622 8.35257L11.058 7.80116L9.50034 11.4854ZM10.8214 12.0438C11.2446 12.2182 11.7008 12.2939 12.1549 12.2674L11.9224 8.27421C12.0648 8.26592 12.2092 8.28943 12.3454 8.34556L10.8214 12.0438ZM12.1549 12.2674C12.609 12.241 13.0544 12.1128 13.4558 11.8888L11.5063 8.39606C11.6377 8.32273 11.7801 8.2825 11.9224 8.27421L12.1549 12.2674ZM13.4558 11.8888C13.8574 11.6647 14.2067 11.3489 14.4704 10.9608L11.1616 8.71314C11.2547 8.57609 11.3746 8.46954 11.5063 8.39606L13.4558 11.8888ZM14.4704 10.9608C14.7343 10.5723 14.9035 10.1239 14.9586 9.65103L10.9855 9.18826C11.0059 9.0132 11.0682 8.85062 11.1616 8.71314L14.4704 10.9608ZM14.9587 9.64995L15.1168 8.28621L11.1434 7.8256L10.9853 9.18934L14.9587 9.64995ZM15.1166 8.28784C15.0891 8.52341 14.9868 8.73326 14.8389 8.89152L11.9158 6.16104C11.4923 6.61443 11.2171 7.19455 11.1436 7.82397L15.1166 8.28784ZM14.8389 8.89152C14.6922 9.04864 14.5088 9.14717 14.3204 9.18776L13.4778 5.27753C12.8864 5.40498 12.3383 5.70879 11.9158 6.16104L14.8389 8.89152ZM14.3133 9.18929C14.8767 9.07004 15.4519 9.00651 16.0295 8.99987L15.9836 5.00013C15.1434 5.00979 14.3062 5.10217 13.485 5.276L14.3133 9.18929ZM15.9847 8.99988C16.5569 9.00614 17.126 9.06928 17.6828 9.1884L18.5196 5.2769C17.7005 5.10167 16.8656 5.00928 16.0284 5.00012L15.9847 8.99988ZM17.6836 9.18856C17.4933 9.14792 17.308 9.04844 17.1601 8.88952L20.0875 6.16373C19.6639 5.70874 19.1131 5.40362 18.5188 5.27674L17.6836 9.18856ZM17.1601 8.88952C17.011 8.72943 16.9083 8.5171 16.8818 8.27911L20.8573 7.83655C20.7868 7.20381 20.5123 6.61989 20.0875 6.16373L17.1601 8.88952ZM16.8829 8.28835L17.041 9.65081L21.0143 9.18977L20.8562 7.82731L16.8829 8.28835ZM17.0402 9.64432C17.0937 10.1187 17.2623 10.5688 17.5264 10.9588L20.8382 8.71552C20.9325 8.85468 20.9951 9.01923 21.0151 9.19625L17.0402 9.64432ZM17.5264 10.9588C17.7902 11.3482 18.1405 11.6649 18.5433 11.8893L20.4897 8.3948C20.623 8.46901 20.7443 8.57681 20.8382 8.71552L17.5264 10.9588ZM18.5433 11.8893C18.9459 12.1135 19.3927 12.2411 19.848 12.2663L20.0685 8.27235C20.2126 8.28031 20.3568 8.32074 20.4897 8.3948L18.5433 11.8893ZM19.848 12.2663C20.3033 12.2914 20.7605 12.2137 21.1839 12.0366L19.6406 8.34635C19.7783 8.28878 19.9244 8.2644 20.0685 8.27235L19.848 12.2663ZM21.1907 12.0338L22.4942 11.483L20.9374 7.79841L19.6339 8.34918L21.1907 12.0338ZM22.4863 11.4864C22.306 11.5616 22.111 11.5801 21.9242 11.5431L22.7023 7.61951C22.114 7.50286 21.5016 7.56288 20.9454 7.79508L22.4863 11.4864ZM21.9242 11.5431C21.7372 11.506 21.5544 11.4121 21.4062 11.2603L24.2682 8.46586C23.8397 8.02701 23.2909 7.73622 22.7023 7.61951L21.9242 11.5431ZM21.4005 11.2544C22.1602 12.039 22.7219 12.9707 23.0504 13.9789L26.8535 12.7395C26.3334 11.1435 25.4499 9.68613 24.2739 8.47174L21.4005 11.2544ZM23.0498 13.9772C22.9771 13.7533 22.9792 13.5109 23.0555 13.2887L26.8387 14.5878C27.044 13.99 27.0495 13.3427 26.8541 12.7412L23.0498 13.9772ZM23.0555 13.2887C23.1314 13.0677 23.2722 12.8899 23.4424 12.7703L25.7421 16.0432C26.2448 15.6899 26.6338 15.1845 26.8387 14.5878L23.0555 13.2887ZM23.4343 12.776L22.2822 13.5941L24.598 16.8556L25.7502 16.0375L23.4343 12.776ZM22.2994 13.582C21.917 13.8475 21.5977 14.2017 21.3741 14.6208L24.9034 16.5034C24.8224 16.6552 24.7096 16.7782 24.5807 16.8677L22.2994 13.582ZM21.3741 14.6208C21.1503 15.0404 21.0308 15.51 21.0299 15.9903L25.0299 15.9973C25.0296 16.1773 24.9847 16.3511 24.9034 16.5034L21.3741 14.6208ZM21.0299 15.9903C21.0291 16.4706 21.147 16.9407 21.3694 17.3611L24.9051 15.4906C24.9859 15.6433 25.0302 15.8172 25.0299 15.9973L21.0299 15.9903ZM21.3694 17.3611C21.5916 17.7811 21.9098 18.1363 22.2913 18.4031L24.5835 15.125C24.7121 15.2149 24.8246 15.3384 24.9051 15.4906L21.3694 17.3611ZM22.2817 18.3963L23.4399 19.2164L25.7513 15.9518L24.5931 15.1318L22.2817 18.3963ZM15.9998 20.5661C17.2148 20.5661 18.3958 20.1038 19.2791 19.2564L16.5099 16.3699C16.3882 16.4867 16.2062 16.5661 15.9998 16.5661V20.5661ZM19.2791 19.2564C20.1653 18.4062 20.6793 17.235 20.6793 15.9954H16.6793C16.6793 16.1194 16.6288 16.2559 16.5099 16.3699L19.2791 19.2564ZM20.6793 15.9954C20.6793 14.7558 20.1653 13.5846 19.2791 12.7345L16.5099 15.6209C16.6288 15.7349 16.6793 15.8715 16.6793 15.9954H20.6793ZM19.2791 12.7345C18.3958 11.887 17.2148 11.4248 15.9998 11.4248V15.4248C16.2062 15.4248 16.3882 15.5042 16.5099 15.6209L19.2791 12.7345ZM15.9998 11.4248C14.7849 11.4248 13.6039 11.887 12.7206 12.7345L15.4898 15.6209C15.6114 15.5042 15.7935 15.4248 15.9998 15.4248V11.4248ZM12.7206 12.7345C11.8344 13.5846 11.3204 14.7558 11.3204 15.9954H15.3204C15.3204 15.8715 15.3709 15.7349 15.4898 15.6209L12.7206 12.7345ZM11.3204 15.9954C11.3204 17.235 11.8344 18.4062 12.7206 19.2564L15.4898 16.3699C15.3709 16.2559 15.3204 16.1194 15.3204 15.9954H11.3204ZM12.7206 19.2564C13.6039 20.1038 14.7849 20.5661 15.9998 20.5661V16.5661C15.7935 16.5661 15.6114 16.4867 15.4898 16.3699L12.7206 19.2564Z" fill="white" mask="url(#path-4-outside-1_1_174)"/>
</svg>
