<svg width="180" height="48" viewBox="0 0 180 48" fill="none" xmlns="http://www.w3.org/2000/svg">
<path d="M2 17V10C2 5.58172 5.58172 2 10 2H170C174.418 2 178 5.58172 178 10V17" stroke="#FFAF4B" stroke-width="4" stroke-linecap="square"/>
<path d="M2 31V38C2 42.4183 6.04092 46 11.0256 46H168.974C173.959 46 178 42.4183 178 38V31" stroke="#FFAF4B" stroke-width="4" stroke-linecap="square"/>
<path d="M52.7175 15.08C54.4615 15.064 56.1575 15.144 57.8055 15.32C57.8375 15.848 57.8455 16.456 57.8295 17.144C57.8295 17.832 57.7895 18.464 57.7095 19.04C57.4055 18.976 57.0295 18.952 56.5815 18.968C56.1335 18.984 55.5335 19.008 54.7815 19.04H54.7335H54.7095C54.7095 19.056 54.7015 19.072 54.6855 19.088C54.6855 19.088 54.6855 19.096 54.6855 19.112C54.6695 19.192 54.6535 19.32 54.6375 19.496C54.6375 19.656 54.6375 19.92 54.6375 20.288C54.6375 20.64 54.6375 21.112 54.6375 21.704C54.6535 22.28 54.6695 23.032 54.6855 23.96C54.7015 24.872 54.7175 25.976 54.7335 27.272C54.7495 28.552 54.7735 30.064 54.8055 31.808V31.832V31.856C54.5175 31.904 54.1975 31.936 53.8455 31.952C53.5095 31.952 53.1655 31.952 52.8135 31.952C52.4775 31.952 52.1415 31.952 51.8055 31.952C51.4695 31.952 51.1575 31.976 50.8695 32.024C50.8535 31.96 50.8535 31.672 50.8695 31.16C50.8855 30.648 50.8935 29.888 50.8935 28.88C50.9095 27.856 50.9015 26.552 50.8695 24.968C50.8535 23.384 50.7975 21.472 50.7015 19.232L50.6775 19.208C50.4855 19.112 50.2455 19.056 49.9575 19.04C49.6695 19.008 49.3815 18.992 49.0935 18.992C48.8055 18.976 48.5415 18.968 48.3015 18.968C48.0615 18.968 47.8935 18.952 47.7975 18.92C47.7655 18.856 47.7335 18.696 47.7015 18.44C47.6855 18.184 47.6695 17.88 47.6535 17.528C47.6535 17.16 47.6535 16.768 47.6535 16.352C47.6535 15.936 47.6695 15.536 47.7015 15.152C47.7015 15.136 47.6935 15.128 47.6775 15.128C47.6775 15.128 47.6775 15.12 47.6775 15.104C49.3095 15.088 50.9895 15.08 52.7175 15.08ZM68.5901 15.728C68.8941 15.76 69.1421 15.832 69.3341 15.944C69.4301 17.992 69.4621 20.064 69.4301 22.16C69.3981 24.24 69.2701 26.312 69.0461 28.376C68.9181 29.432 68.5181 30.328 67.8461 31.064C67.1741 31.8 66.2621 32.224 65.1101 32.336C64.4381 32.4 63.7421 32.368 63.0221 32.24C62.3021 32.128 61.6461 31.92 61.0541 31.616C60.4781 31.296 59.9901 30.88 59.5901 30.368C59.2061 29.84 58.9981 29.208 58.9661 28.472C58.9661 26.36 58.9901 24.232 59.0381 22.088C59.0861 19.944 59.0941 17.816 59.0621 15.704L59.0381 15.68H59.0621C59.3021 15.68 59.5661 15.672 59.8541 15.656C60.1581 15.64 60.4621 15.632 60.7661 15.632C61.0701 15.632 61.3661 15.648 61.6541 15.68C61.9421 15.696 62.2061 15.736 62.4461 15.8V15.824C62.2701 19.696 62.3421 23.624 62.6621 27.608C62.7741 27.992 62.9741 28.272 63.2621 28.448C63.5661 28.624 63.8781 28.704 64.1981 28.688C64.5181 28.672 64.8141 28.56 65.0861 28.352C65.3581 28.144 65.5341 27.856 65.6141 27.488C65.6941 25.568 65.7341 23.616 65.7341 21.632C65.7501 19.648 65.7821 17.728 65.8301 15.872C66.0381 15.856 66.3021 15.832 66.6221 15.8C66.9581 15.752 67.2941 15.72 67.6301 15.704C67.9661 15.688 68.2861 15.696 68.5901 15.728ZM75.4753 15.08C77.2193 15.064 78.9153 15.144 80.5633 15.32C80.5953 15.848 80.6033 16.456 80.5873 17.144C80.5873 17.832 80.5473 18.464 80.4673 19.04C80.1633 18.976 79.7873 18.952 79.3393 18.968C78.8913 18.984 78.2913 19.008 77.5393 19.04H77.4913H77.4673C77.4673 19.056 77.4593 19.072 77.4433 19.088C77.4433 19.088 77.4433 19.096 77.4433 19.112C77.4273 19.192 77.4113 19.32 77.3953 19.496C77.3953 19.656 77.3953 19.92 77.3953 20.288C77.3953 20.64 77.3953 21.112 77.3953 21.704C77.4113 22.28 77.4273 23.032 77.4433 23.96C77.4593 24.872 77.4753 25.976 77.4913 27.272C77.5073 28.552 77.5313 30.064 77.5633 31.808V31.832V31.856C77.2753 31.904 76.9553 31.936 76.6033 31.952C76.2673 31.952 75.9233 31.952 75.5713 31.952C75.2353 31.952 74.8993 31.952 74.5633 31.952C74.2273 31.952 73.9153 31.976 73.6273 32.024C73.6113 31.96 73.6113 31.672 73.6273 31.16C73.6433 30.648 73.6513 29.888 73.6513 28.88C73.6673 27.856 73.6593 26.552 73.6273 24.968C73.6113 23.384 73.5553 21.472 73.4593 19.232L73.4353 19.208C73.2433 19.112 73.0033 19.056 72.7153 19.04C72.4273 19.008 72.1393 18.992 71.8513 18.992C71.5633 18.976 71.2993 18.968 71.0593 18.968C70.8193 18.968 70.6513 18.952 70.5553 18.92C70.5233 18.856 70.4913 18.696 70.4593 18.44C70.4433 18.184 70.4273 17.88 70.4113 17.528C70.4113 17.16 70.4113 16.768 70.4113 16.352C70.4113 15.936 70.4273 15.536 70.4593 15.152C70.4593 15.136 70.4513 15.128 70.4353 15.128C70.4353 15.128 70.4353 15.12 70.4353 15.104C72.0673 15.088 73.7473 15.08 75.4753 15.08ZM90.3399 16.328C90.8039 16.744 91.1319 17.232 91.3239 17.792C91.4359 18.032 91.5159 18.28 91.5639 18.536C91.6279 18.776 91.6759 19.024 91.7079 19.28C91.7399 19.68 91.7559 20.08 91.7559 20.48C91.7719 20.864 91.7719 21.256 91.7559 21.656C91.7079 22.504 91.6919 23.328 91.7079 24.128C91.7239 24.928 91.6999 25.744 91.6359 26.576L91.5639 27.368C91.5319 27.928 91.4439 28.496 91.2999 29.072C91.1559 29.632 90.9399 30.144 90.6519 30.608C90.3799 30.992 90.0199 31.304 89.5719 31.544C89.1399 31.768 88.6759 31.944 88.1799 32.072C87.7319 32.2 87.2759 32.28 86.8119 32.312C86.3639 32.344 85.9079 32.344 85.4439 32.312C85.1079 32.28 84.7799 32.232 84.4599 32.168C84.1559 32.12 83.8599 32.032 83.5719 31.904C83.2999 31.776 83.0519 31.616 82.8279 31.424C82.6039 31.216 82.4199 30.952 82.2759 30.632C82.0519 30.232 81.8999 29.808 81.8199 29.36C81.7559 28.896 81.7159 28.432 81.6999 27.968C81.6519 26.72 81.5959 25.472 81.5319 24.224C81.4839 22.96 81.4999 21.696 81.5799 20.432C81.5959 19.712 81.6839 18.992 81.8439 18.272C82.0199 17.536 82.3559 16.888 82.8519 16.328C83.0119 16.168 83.1959 16.024 83.4039 15.896C83.9319 15.64 84.4999 15.456 85.1079 15.344C85.7319 15.216 86.3479 15.168 86.9559 15.2C87.5799 15.232 88.1799 15.344 88.7559 15.536C89.3479 15.712 89.8759 15.976 90.3399 16.328ZM88.7559 24.8V23.648L88.7079 22.016C88.7079 22 88.6919 21.84 88.6599 21.536C88.6439 21.216 88.6279 20.92 88.6119 20.648C88.5799 20.2 88.4519 19.792 88.2279 19.424C88.0199 19.056 87.7319 18.784 87.3639 18.608C87.0439 18.48 86.7159 18.456 86.3799 18.536C86.0439 18.616 85.7479 18.752 85.4919 18.944C84.9319 19.376 84.5559 19.928 84.3639 20.6C84.2359 21.208 84.1559 21.848 84.1239 22.52C84.1079 23.192 84.1159 23.864 84.1479 24.536C84.2279 25.096 84.2839 25.672 84.3159 26.264C84.3479 26.84 84.4439 27.392 84.6039 27.92C84.7639 28.24 84.9959 28.488 85.2999 28.664C85.6039 28.84 85.9319 28.944 86.2839 28.976C86.6359 28.992 86.9879 28.944 87.3399 28.832C87.6919 28.704 87.9879 28.504 88.2279 28.232C88.3719 28.04 88.4759 27.888 88.5399 27.776C88.6039 27.648 88.6439 27.512 88.6599 27.368C88.6759 27.224 88.6759 27.056 88.6599 26.864C88.6599 26.656 88.6759 26.384 88.7079 26.048C88.7239 25.728 88.7319 25.448 88.7319 25.208C88.7479 24.968 88.7559 24.832 88.7559 24.8ZM103.934 30.032C104.286 30.64 104.582 31.272 104.822 31.928H104.846C104.286 31.928 103.662 31.952 102.974 32C102.286 32.032 101.582 32.024 100.862 31.976H100.838C100.678 31.608 100.478 31.168 100.238 30.656C99.9975 30.144 99.7335 29.608 99.4455 29.048C99.1575 28.488 98.8455 27.936 98.5095 27.392C98.1735 26.848 97.8375 26.368 97.5015 25.952L97.4535 25.88C97.4055 26.248 97.3815 26.704 97.3815 27.248C97.3815 27.776 97.3895 28.328 97.4055 28.904C97.4375 29.464 97.4695 30 97.5015 30.512C97.5335 31.024 97.5575 31.432 97.5735 31.736C97.3015 31.848 96.9415 31.92 96.4935 31.952C96.0615 31.984 95.6295 32 95.1975 32C94.7655 32.016 94.3735 32.016 94.0215 32C93.6855 31.984 93.4775 31.984 93.3975 32C93.4295 32 93.4535 31.784 93.4695 31.352C93.4855 30.904 93.4935 30.32 93.4935 29.6C93.4935 28.88 93.4935 28.056 93.4935 27.128C93.4935 26.184 93.4855 25.216 93.4695 24.224C93.4695 23.216 93.4535 22.224 93.4215 21.248C93.4055 20.256 93.3895 19.352 93.3735 18.536C93.3575 17.704 93.3335 17 93.3015 16.424C93.2855 15.832 93.2615 15.432 93.2295 15.224C94.1255 15.096 95.1095 14.976 96.1815 14.864C97.2535 14.752 98.3735 14.76 99.5415 14.888C100.486 14.936 101.334 15.208 102.086 15.704C102.838 16.2 103.422 16.816 103.838 17.552C104.254 18.288 104.47 19.104 104.486 20C104.518 20.88 104.286 21.736 103.79 22.568C103.486 23.144 103.078 23.624 102.566 24.008C102.07 24.392 101.438 24.608 100.67 24.656H100.574H100.55V24.68C100.886 25.272 101.254 25.864 101.654 26.456C102.054 27.032 102.446 27.616 102.83 28.208C103.214 28.8 103.582 29.408 103.934 30.032ZM98.3895 18.224C97.8455 18.24 97.2935 18.36 96.7335 18.584C96.7495 18.792 96.7575 19.032 96.7575 19.304C96.7735 19.56 96.7815 19.824 96.7815 20.096C96.7815 20.368 96.7815 20.632 96.7815 20.888C96.7975 21.144 96.8215 21.36 96.8535 21.536H96.8775C97.2455 21.568 97.6455 21.592 98.0775 21.608C98.5095 21.624 98.9175 21.6 99.3015 21.536C99.6055 21.472 99.8375 21.32 99.9975 21.08C100.174 20.824 100.278 20.552 100.31 20.264C100.342 19.96 100.31 19.664 100.214 19.376C100.118 19.072 99.9575 18.832 99.7335 18.656C99.3815 18.336 98.9335 18.192 98.3895 18.224ZM107.955 15.128C108.339 15.144 108.891 15.144 109.611 15.128H110.187V15.224C110.187 16.6 110.163 17.984 110.115 19.376C110.083 20.768 110.051 22.168 110.019 23.576C110.003 24.968 110.003 26.36 110.019 27.752C110.035 29.144 110.083 30.52 110.163 31.88C110.035 32.008 109.763 32.08 109.347 32.096C108.947 32.128 108.507 32.136 108.027 32.12C107.563 32.104 107.115 32.08 106.683 32.048C106.251 32.032 105.955 32.048 105.795 32.096C105.907 30.656 105.955 29.208 105.939 27.752C105.923 26.296 105.891 24.856 105.843 23.432C105.811 21.992 105.787 20.576 105.771 19.184C105.771 17.776 105.843 16.4 105.987 15.056V15.008C106.067 14.992 106.219 15 106.443 15.032C106.683 15.048 106.859 15.056 106.971 15.056C107.259 15.072 107.587 15.096 107.955 15.128ZM119.518 22.472C119.63 22.936 119.718 23.304 119.782 23.576L121.582 31.976V32C121.102 32.096 120.574 32.128 119.998 32.096C119.422 32.08 118.878 32.016 118.366 31.904H118.342C118.246 31.648 118.15 31.344 118.054 30.992C117.974 30.64 117.886 30.28 117.79 29.912C117.71 29.544 117.622 29.192 117.526 28.856C117.43 28.52 117.326 28.232 117.214 27.992C117.006 27.96 116.846 27.944 116.734 27.944C116.622 27.944 116.518 27.944 116.422 27.944C116.342 27.944 116.246 27.952 116.134 27.968C116.038 27.968 115.902 27.968 115.726 27.968C115.614 28.224 115.518 28.528 115.438 28.88C115.374 29.216 115.302 29.576 115.222 29.96C115.158 30.328 115.086 30.688 115.006 31.04C114.926 31.392 114.814 31.704 114.67 31.976C114.654 31.976 114.638 31.984 114.622 32C114.622 32 114.614 32 114.598 32C114.47 32.032 114.15 32.032 113.638 32C113.126 31.968 112.326 31.96 111.238 31.976C111.222 31.976 111.206 31.968 111.19 31.952C111.222 31.84 111.278 31.528 111.358 31.016C111.438 30.504 111.55 29.84 111.694 29.024C111.838 28.208 112.006 27.272 112.198 26.216C112.406 25.144 112.646 24.008 112.918 22.808C113.19 21.608 113.486 20.36 113.806 19.064C114.126 17.768 114.478 16.48 114.862 15.2C114.974 15.184 115.094 15.176 115.222 15.176C115.35 15.176 115.518 15.176 115.726 15.176C115.934 15.176 116.198 15.176 116.518 15.176C116.854 15.16 117.286 15.128 117.814 15.08C117.862 15.288 117.934 15.608 118.03 16.04C118.142 16.456 118.254 16.936 118.366 17.48C118.494 18.008 118.622 18.576 118.75 19.184C118.894 19.792 119.03 20.376 119.158 20.936C119.286 21.496 119.406 22.008 119.518 22.472ZM116.422 25.16C116.726 25.144 117.03 25.136 117.334 25.136C117.174 23.76 117.03 22.688 116.902 21.92C116.79 21.152 116.686 20.632 116.59 20.36C116.51 20.088 116.422 20.032 116.326 20.192C116.246 20.336 116.166 20.64 116.086 21.104C116.022 21.568 115.942 22.152 115.846 22.856C115.766 23.56 115.67 24.32 115.558 25.136C115.83 25.152 116.118 25.16 116.422 25.16ZM132.444 29.384C132.444 29.544 132.452 29.688 132.468 29.816C132.5 30.392 132.516 30.832 132.516 31.136C132.516 31.424 132.492 31.64 132.444 31.784C132.412 31.912 132.348 31.984 132.252 32C132.156 32 132.02 32 131.844 32C131.668 31.984 131.436 31.984 131.148 32C130.876 32.016 130.404 32.032 129.732 32.048C129.076 32.064 128.164 32.072 126.996 32.072C125.844 32.072 124.3 32.056 122.364 32.024V31.592C122.412 30.392 122.452 29.312 122.484 28.352C122.516 27.376 122.532 26.472 122.532 25.64C122.548 24.792 122.556 23.976 122.556 23.192C122.556 22.408 122.548 21.608 122.532 20.792C122.516 19.976 122.5 19.112 122.484 18.2C122.468 17.272 122.452 16.248 122.436 15.128C122.596 15.064 122.844 15.016 123.18 14.984C123.516 14.936 123.876 14.912 124.26 14.912C124.644 14.912 125.02 14.936 125.388 14.984C125.756 15.032 126.052 15.104 126.276 15.2C126.244 16.24 126.228 17.312 126.228 18.416C126.244 19.504 126.26 20.6 126.276 21.704C126.292 22.808 126.3 23.912 126.3 25.016C126.316 26.104 126.316 27.16 126.3 28.184V28.208C126.412 28.176 126.62 28.168 126.924 28.184C127.244 28.184 127.612 28.192 128.028 28.208C128.444 28.224 128.884 28.248 129.348 28.28C129.828 28.296 130.276 28.312 130.692 28.328C131.124 28.344 131.5 28.36 131.82 28.376C132.156 28.376 132.388 28.368 132.516 28.352C132.516 28.528 132.508 28.704 132.492 28.88C132.476 29.04 132.46 29.208 132.444 29.384Z" fill="white"/>
</svg>
