<svg width="32" height="32" viewBox="0 0 32 32" fill="none" xmlns="http://www.w3.org/2000/svg">
<path d="M6.48779 27.5987C9.07644 29.7242 12.3893 31 16.0002 31C24.2844 31 31.0002 24.2843 31.0002 16C31.0002 12.3892 29.7243 9.07632 27.5988 6.48767" stroke="#FFAF4B" stroke-width="2"/>
<path d="M25.5122 4.40134C22.9236 2.27583 19.6107 0.999962 15.9998 0.999962C7.71557 0.999962 0.99984 7.71569 0.99984 16C0.99984 19.6108 2.27571 22.9237 4.40122 25.5123" stroke="#AAEEFF" stroke-width="2"/>
<path d="M9.99174 23.2469L9.08309 23.6645C8.85937 23.1777 8.86465 22.6669 9.02707 22.1961L10.4337 17.6595L6.89853 15.1641C6.48421 14.8851 6.18136 14.4816 6.06262 13.9703C5.96787 13.5623 5.97426 13.1347 6.12615 12.7197C6.26907 12.3291 6.51299 12.0052 6.81872 11.7464C7.20295 11.4211 7.66543 11.268 8.15129 11.269M9.99174 23.2469L22.1359 24.6079C22.1361 24.6077 22.1364 24.6075 22.1367 24.6073M9.99174 23.2469L9.08309 23.6645C9.25577 24.0403 9.51398 24.364 9.86161 24.6061C10.22 24.8565 10.6274 24.9829 11.0535 24.9985C11.5589 25.0171 12.0149 24.8463 12.3912 24.5455L16 21.8073L19.6081 24.5449M9.99174 23.2469L19.6081 24.5449M8.15129 11.269C8.1518 11.269 8.15231 11.269 8.15282 11.269L8.14998 12.269V11.269H8.15129ZM8.15129 11.269H12.5184L13.9585 6.53179L13.9658 6.50791L13.9742 6.48442C14.128 6.05637 14.389 5.67411 14.7792 5.39694L15.3583 6.21219L14.7792 5.39694C15.1349 5.14426 15.5493 4.99886 16.0017 5.00001C16.4528 5.00037 16.8665 5.14555 17.222 5.39807C17.6121 5.67521 17.8731 6.05738 18.0264 6.48597L18.0345 6.5087L18.0415 6.53179L19.4816 11.269L23.85 11.269C24.3356 11.269 24.7975 11.4226 25.1813 11.7475L24.5351 12.5107L25.1813 11.7475C25.4863 12.0057 25.7303 12.3287 25.8734 12.7185L25.8739 12.7197C26.0257 13.1347 26.0321 13.5623 25.9374 13.9703C25.8186 14.4816 25.5158 14.8851 25.1015 15.164L21.5663 17.6595L22.9726 22.195C23.136 22.6658 23.1421 23.177 22.9181 23.6645L22.0094 23.2469L22.9181 23.6645C22.7449 24.0413 22.4855 24.3654 22.1367 24.6073M22.1367 24.6073C21.7793 24.8557 21.3736 24.9816 20.9495 24.9984C20.4422 25.0186 19.9848 24.847 19.6081 24.5449M22.1367 24.6073L19.6081 24.5449" stroke="white" stroke-width="2"/>
</svg>
